<svg width="37" height="28" viewBox="0 0 37 28" fill="none" xmlns="http://www.w3.org/2000/svg">
<path d="M0.837219 9.26585V0.538574H1.89404V4.42494H6.54745V0.538574H7.60427V9.26585H6.54745V5.36244H1.89404V9.26585H0.837219Z" fill="#2532BF"/>
<path d="M12.328 9.40221C11.6973 9.40221 11.1533 9.26301 10.6959 8.9846C10.2413 8.70335 9.89049 8.3113 9.64333 7.80846C9.39901 7.30278 9.27685 6.71471 9.27685 6.04426C9.27685 5.3738 9.39901 4.78289 9.64333 4.27153C9.89049 3.75732 10.2342 3.35676 10.6746 3.06982C11.1178 2.78005 11.6348 2.63517 12.2257 2.63517C12.5666 2.63517 12.9033 2.69198 13.2357 2.80562C13.568 2.91926 13.8706 3.10392 14.1433 3.3596C14.4161 3.61244 14.6334 3.94767 14.7953 4.36528C14.9572 4.78289 15.0382 5.2971 15.0382 5.90789V6.33403H9.99276V5.46471H14.0155C14.0155 5.09539 13.9416 4.76585 13.7939 4.47607C13.649 4.1863 13.4416 3.95761 13.1717 3.78999C12.9047 3.62238 12.5894 3.53857 12.2257 3.53857C11.8251 3.53857 11.4786 3.63801 11.1859 3.83687C10.8962 4.03289 10.6732 4.28857 10.5169 4.60392C10.3607 4.91926 10.2825 5.25732 10.2825 5.61812V6.19767C10.2825 6.69198 10.3678 7.11102 10.5382 7.45477C10.7115 7.79568 10.9516 8.05562 11.2584 8.2346C11.5652 8.41073 11.9217 8.4988 12.328 8.4988C12.5922 8.4988 12.8308 8.46187 13.0439 8.38801C13.2598 8.3113 13.4459 8.19767 13.6021 8.0471C13.7584 7.89369 13.8791 7.70335 13.9643 7.47607L14.9359 7.7488C14.8337 8.07835 14.6618 8.36812 14.4203 8.61812C14.1788 8.86528 13.8805 9.05846 13.5254 9.19767C13.1703 9.33403 12.7712 9.40221 12.328 9.40221Z" fill="#2532BF"/>
<path d="M18.4942 9.41926C18.0794 9.41926 17.703 9.34113 17.3649 9.18488C17.0268 9.02579 16.7584 8.7971 16.5595 8.4988C16.3607 8.19767 16.2612 7.83403 16.2612 7.40789C16.2612 7.03289 16.3351 6.72892 16.4828 6.49596C16.6305 6.26017 16.828 6.07551 17.0751 5.94198C17.3223 5.80846 17.595 5.70903 17.8933 5.64369C18.1945 5.57551 18.497 5.52153 18.801 5.48176C19.1987 5.43062 19.5212 5.39227 19.7683 5.3667C20.0183 5.33829 20.2001 5.29142 20.3138 5.22607C20.4303 5.16073 20.4885 5.0471 20.4885 4.88517V4.85107C20.4885 4.43062 20.3734 4.10392 20.1433 3.87096C19.9161 3.63801 19.5709 3.52153 19.1078 3.52153C18.6277 3.52153 18.2513 3.62664 17.9786 3.83687C17.7058 4.0471 17.5141 4.27153 17.4033 4.51017L16.4487 4.16926C16.6192 3.77153 16.8465 3.46187 17.1305 3.24028C17.4175 3.01585 17.73 2.8596 18.068 2.77153C18.409 2.68062 18.7442 2.63517 19.0737 2.63517C19.284 2.63517 19.5254 2.66073 19.7982 2.71187C20.0737 2.76016 20.3393 2.86102 20.595 3.01443C20.8536 3.16784 21.068 3.39937 21.2385 3.70903C21.409 4.01869 21.4942 4.43346 21.4942 4.95335V9.26585H20.4885V8.37948H20.4374C20.3692 8.52153 20.2555 8.67352 20.0965 8.83545C19.9374 8.99738 19.7257 9.13517 19.4615 9.2488C19.1973 9.36244 18.8749 9.41926 18.4942 9.41926ZM18.6476 8.51585C19.0453 8.51585 19.3805 8.43772 19.6533 8.28147C19.9288 8.12522 20.1362 7.92352 20.2754 7.67636C20.4175 7.4292 20.4885 7.16926 20.4885 6.89653V5.97607C20.4459 6.02721 20.3521 6.07409 20.2072 6.1167C20.0652 6.15647 19.9004 6.19198 19.7129 6.22323C19.5283 6.25164 19.3479 6.27721 19.1717 6.29994C18.9984 6.31982 18.8578 6.33687 18.7499 6.35107C18.4885 6.38517 18.2442 6.44056 18.0169 6.51727C17.7925 6.59113 17.6107 6.70335 17.4715 6.85392C17.3351 7.00164 17.2669 7.20335 17.2669 7.45903C17.2669 7.80846 17.3962 8.07267 17.6547 8.25164C17.9161 8.42778 18.247 8.51585 18.6476 8.51585Z" fill="#2532BF"/>
<path d="M24.3354 0.538574V9.26585H23.3298V0.538574H24.3354Z" fill="#2532BF"/>
<path d="M29.024 2.72039V3.57267H25.632V2.72039H29.024ZM26.6206 1.15221H27.6263V7.39085C27.6263 7.67494 27.6675 7.88801 27.7499 8.03005C27.8351 8.16926 27.943 8.26301 28.0737 8.3113C28.2072 8.35676 28.3479 8.37948 28.4956 8.37948C28.6064 8.37948 28.6973 8.3738 28.7683 8.36244C28.8394 8.34823 28.8962 8.33687 28.9388 8.32835L29.1433 9.23176C29.0751 9.25732 28.98 9.28289 28.8578 9.30846C28.7357 9.33687 28.5808 9.35107 28.3933 9.35107C28.1092 9.35107 27.8308 9.29 27.5581 9.16784C27.2882 9.04568 27.0638 8.8596 26.8848 8.6096C26.7087 8.3596 26.6206 8.04426 26.6206 7.66357V1.15221Z" fill="#2532BF"/>
<path d="M31.6831 5.32835V9.26585H30.6774V0.538574H31.6831V3.74312H31.7683C31.9217 3.40505 32.1518 3.13659 32.4587 2.93772C32.7683 2.73602 33.1803 2.63517 33.6945 2.63517C34.1405 2.63517 34.5311 2.72465 34.8663 2.90363C35.2016 3.07977 35.4615 3.35107 35.6462 3.71755C35.8337 4.08119 35.9274 4.54426 35.9274 5.10676V9.26585H34.9217V5.17494C34.9217 4.65505 34.7868 4.25306 34.5169 3.96897C34.2499 3.68204 33.8791 3.53857 33.4047 3.53857C33.0751 3.53857 32.7797 3.60818 32.5183 3.74738C32.2598 3.88659 32.0553 4.08971 31.9047 4.35676C31.757 4.6238 31.6831 4.94767 31.6831 5.32835Z" fill="#2532BF"/>
<path d="M0.837219 24.2658V15.5386H3.88836C4.49631 15.5386 4.99773 15.6437 5.39262 15.8539C5.7875 16.0613 6.08154 16.3411 6.27472 16.6934C6.4679 17.0428 6.56449 17.4306 6.56449 17.8568C6.56449 18.2318 6.49773 18.5414 6.36421 18.7857C6.23353 19.0301 6.06023 19.2232 5.84432 19.3653C5.63125 19.5073 5.39972 19.6124 5.14972 19.6806V19.7658C5.41676 19.7829 5.68523 19.8766 5.95512 20.0471C6.225 20.2176 6.45086 20.4619 6.63267 20.7801C6.81449 21.0982 6.9054 21.4874 6.9054 21.9477C6.9054 22.3852 6.80597 22.7786 6.60711 23.1281C6.40824 23.4775 6.09432 23.7545 5.66534 23.959C5.23637 24.1636 4.67813 24.2658 3.99063 24.2658H0.837219ZM1.89404 23.3283H3.99063C4.68097 23.3283 5.17103 23.1948 5.4608 22.9278C5.75341 22.6579 5.89972 22.3312 5.89972 21.9477C5.89972 21.6522 5.82444 21.3795 5.67387 21.1295C5.5233 20.8766 5.30881 20.6749 5.0304 20.5244C4.75199 20.371 4.42245 20.2943 4.04176 20.2943H1.89404V23.3283ZM1.89404 19.3738H3.85426C4.17245 19.3738 4.45938 19.3113 4.71506 19.1863C4.97358 19.0613 5.17813 18.8852 5.3287 18.6579C5.48211 18.4306 5.55881 18.1636 5.55881 17.8568C5.55881 17.4732 5.42529 17.1479 5.15824 16.8809C4.8912 16.611 4.4679 16.4761 3.88836 16.4761H1.89404V19.3738Z" fill="#2532BF"/>
<path d="M8.50554 24.2658V17.7204H9.47713V18.709H9.54532C9.66463 18.3852 9.88054 18.1224 10.193 17.9207C10.5055 17.719 10.8578 17.6181 11.2499 17.6181C11.3237 17.6181 11.4161 17.6195 11.5268 17.6224C11.6376 17.6252 11.7215 17.6295 11.7783 17.6352V18.6579C11.7442 18.6494 11.6661 18.6366 11.5439 18.6195C11.4246 18.5997 11.2982 18.5897 11.1646 18.5897C10.8465 18.5897 10.5624 18.6565 10.3124 18.79C10.0652 18.9207 9.86918 19.1025 9.72429 19.3354C9.58225 19.5656 9.51122 19.8283 9.51122 20.1238V24.2658H8.50554Z" fill="#2532BF"/>
<path d="M12.9704 24.2658V17.7204H13.9761V24.2658H12.9704ZM13.4818 16.6295C13.2857 16.6295 13.1167 16.5627 12.9746 16.4292C12.8354 16.2957 12.7658 16.1352 12.7658 15.9477C12.7658 15.7602 12.8354 15.5997 12.9746 15.4661C13.1167 15.3326 13.2857 15.2658 13.4818 15.2658C13.6778 15.2658 13.8454 15.3326 13.9846 15.4661C14.1266 15.5997 14.1977 15.7602 14.1977 15.9477C14.1977 16.1352 14.1266 16.2957 13.9846 16.4292C13.8454 16.5627 13.6778 16.6295 13.4818 16.6295Z" fill="#2532BF"/>
<path d="M18.2896 24.4022C17.7442 24.4022 17.2626 24.2644 16.845 23.9889C16.4274 23.7105 16.1007 23.3184 15.8649 22.8127C15.6291 22.3042 15.5112 21.7033 15.5112 21.0102C15.5112 20.3227 15.6291 19.7261 15.8649 19.2204C16.1007 18.7147 16.4288 18.3241 16.8493 18.0485C17.2697 17.7729 17.7555 17.6352 18.3067 17.6352C18.7328 17.6352 19.0695 17.7062 19.3166 17.8482C19.5666 17.9874 19.757 18.1465 19.8876 18.3255C20.0212 18.5016 20.1249 18.6465 20.1987 18.7602H20.284V15.5386H21.2896V24.2658H20.318V23.2602H20.1987C20.1249 23.3795 20.0197 23.5301 19.8834 23.7119C19.747 23.8908 19.5524 24.0514 19.2996 24.1934C19.0467 24.3326 18.7101 24.4022 18.2896 24.4022ZM18.426 23.4988C18.8294 23.4988 19.1703 23.3937 19.4487 23.1835C19.7271 22.9704 19.9388 22.6764 20.0837 22.3014C20.2286 21.9235 20.301 21.4874 20.301 20.9931C20.301 20.5045 20.23 20.0769 20.0879 19.7104C19.9459 19.3411 19.7357 19.0542 19.4572 18.8497C19.1788 18.6423 18.8351 18.5386 18.426 18.5386C17.9999 18.5386 17.6447 18.6479 17.3607 18.8667C17.0794 19.0826 16.8678 19.3766 16.7257 19.7488C16.5865 20.1181 16.5169 20.5329 16.5169 20.9931C16.5169 21.459 16.5879 21.8823 16.73 22.263C16.8749 22.6408 17.0879 22.942 17.3692 23.1664C17.6533 23.388 18.0055 23.4988 18.426 23.4988Z" fill="#2532BF"/>
<path d="M25.9132 26.8568C25.4274 26.8568 25.0098 26.7943 24.6604 26.6693C24.3109 26.5471 24.0197 26.3852 23.7868 26.1835C23.5567 25.9846 23.3734 25.7715 23.2371 25.5443L24.0382 24.9818C24.1291 25.1011 24.2442 25.2374 24.3834 25.3908C24.5226 25.5471 24.7129 25.682 24.9544 25.7957C25.1987 25.9122 25.5183 25.9704 25.9132 25.9704C26.4416 25.9704 26.8777 25.8426 27.2215 25.5869C27.5652 25.3312 27.7371 24.9306 27.7371 24.3852V23.0556H27.6518C27.578 23.1749 27.4729 23.3227 27.3365 23.4988C27.203 23.6721 27.0098 23.8269 26.757 23.9633C26.507 24.0968 26.1689 24.1636 25.7428 24.1636C25.2144 24.1636 24.7399 24.0386 24.3195 23.7886C23.9019 23.5386 23.5709 23.1749 23.3266 22.6977C23.0851 22.2204 22.9643 21.6408 22.9643 20.959C22.9643 20.2886 23.0822 19.7048 23.318 19.2076C23.5538 18.7076 23.882 18.3212 24.3024 18.0485C24.7229 17.7729 25.2087 17.6352 25.7598 17.6352C26.1859 17.6352 26.524 17.7062 26.774 17.8482C27.0269 17.9874 27.22 18.1465 27.3536 18.3255C27.4899 18.5016 27.595 18.6465 27.6689 18.7602H27.7712V17.7204H28.7428V24.4533C28.7428 25.0158 28.6149 25.4732 28.3592 25.8255C28.1064 26.1806 27.7655 26.4406 27.3365 26.6053C26.9104 26.7729 26.4359 26.8568 25.9132 26.8568ZM25.8791 23.2602C26.2825 23.2602 26.6234 23.1678 26.9018 22.9832C27.1803 22.7985 27.3919 22.5329 27.5368 22.1863C27.6817 21.8397 27.7541 21.4249 27.7541 20.942C27.7541 20.4704 27.6831 20.0542 27.5411 19.6934C27.399 19.3326 27.1888 19.0499 26.9104 18.8454C26.632 18.6408 26.2882 18.5386 25.8791 18.5386C25.453 18.5386 25.0979 18.6465 24.8138 18.8624C24.5325 19.0783 24.3209 19.3681 24.1788 19.7318C24.0396 20.0954 23.97 20.4988 23.97 20.942C23.97 21.3965 24.0411 21.7985 24.1831 22.1479C24.328 22.4945 24.5411 22.7673 24.8223 22.9661C25.1064 23.1622 25.4587 23.2602 25.8791 23.2602Z" fill="#2532BF"/>
<path d="M33.328 24.4022C32.6973 24.4022 32.1533 24.263 31.6959 23.9846C31.2413 23.7033 30.8905 23.3113 30.6433 22.8085C30.399 22.3028 30.2768 21.7147 30.2768 21.0443C30.2768 20.3738 30.399 19.7829 30.6433 19.2715C30.8905 18.7573 31.2342 18.3568 31.6746 18.0698C32.1178 17.7801 32.6348 17.6352 33.2257 17.6352C33.5666 17.6352 33.9033 17.692 34.2357 17.8056C34.568 17.9193 34.8706 18.1039 35.1433 18.3596C35.4161 18.6124 35.6334 18.9477 35.7953 19.3653C35.9572 19.7829 36.0382 20.2971 36.0382 20.9079V21.334H30.9928V20.4647H35.0155C35.0155 20.0954 34.9416 19.7658 34.7939 19.4761C34.649 19.1863 34.4416 18.9576 34.1717 18.79C33.9047 18.6224 33.5893 18.5386 33.2257 18.5386C32.8251 18.5386 32.4786 18.638 32.1859 18.8369C31.8962 19.0329 31.6732 19.2886 31.5169 19.6039C31.3607 19.9193 31.2825 20.2573 31.2825 20.6181V21.1977C31.2825 21.692 31.3678 22.111 31.5382 22.4548C31.7115 22.7957 31.9516 23.0556 32.2584 23.2346C32.5652 23.4107 32.9217 23.4988 33.328 23.4988C33.5922 23.4988 33.8308 23.4619 34.0439 23.388C34.2598 23.3113 34.4459 23.1977 34.6021 23.0471C34.7584 22.8937 34.8791 22.7033 34.9644 22.4761L35.9359 22.7488C35.8337 23.0783 35.6618 23.3681 35.4203 23.6181C35.1788 23.8653 34.8805 24.0585 34.5254 24.1977C34.1703 24.334 33.7712 24.4022 33.328 24.4022Z" fill="#2532BF"/>
<path d="M0.837219 9.26585V0.538574H1.89404V4.42494H6.54745V0.538574H7.60427V9.26585H6.54745V5.36244H1.89404V9.26585H0.837219Z" stroke="#1F7ED8"/>
<path d="M12.328 9.40221C11.6973 9.40221 11.1533 9.26301 10.6959 8.9846C10.2413 8.70335 9.89049 8.3113 9.64333 7.80846C9.39901 7.30278 9.27685 6.71471 9.27685 6.04426C9.27685 5.3738 9.39901 4.78289 9.64333 4.27153C9.89049 3.75732 10.2342 3.35676 10.6746 3.06982C11.1178 2.78005 11.6348 2.63517 12.2257 2.63517C12.5666 2.63517 12.9033 2.69198 13.2357 2.80562C13.568 2.91926 13.8706 3.10392 14.1433 3.3596C14.4161 3.61244 14.6334 3.94767 14.7953 4.36528C14.9572 4.78289 15.0382 5.2971 15.0382 5.90789V6.33403H9.99276V5.46471H14.0155C14.0155 5.09539 13.9416 4.76585 13.7939 4.47607C13.649 4.1863 13.4416 3.95761 13.1717 3.78999C12.9047 3.62238 12.5894 3.53857 12.2257 3.53857C11.8251 3.53857 11.4786 3.63801 11.1859 3.83687C10.8962 4.03289 10.6732 4.28857 10.5169 4.60392C10.3607 4.91926 10.2825 5.25732 10.2825 5.61812V6.19767C10.2825 6.69198 10.3678 7.11102 10.5382 7.45477C10.7115 7.79568 10.9516 8.05562 11.2584 8.2346C11.5652 8.41073 11.9217 8.4988 12.328 8.4988C12.5922 8.4988 12.8308 8.46187 13.0439 8.38801C13.2598 8.3113 13.4459 8.19767 13.6021 8.0471C13.7584 7.89369 13.8791 7.70335 13.9643 7.47607L14.9359 7.7488C14.8337 8.07835 14.6618 8.36812 14.4203 8.61812C14.1788 8.86528 13.8805 9.05846 13.5254 9.19767C13.1703 9.33403 12.7712 9.40221 12.328 9.40221Z" stroke="#1F7ED8"/>
<path d="M18.4942 9.41926C18.0794 9.41926 17.703 9.34113 17.3649 9.18488C17.0268 9.02579 16.7584 8.7971 16.5595 8.4988C16.3607 8.19767 16.2612 7.83403 16.2612 7.40789C16.2612 7.03289 16.3351 6.72892 16.4828 6.49596C16.6305 6.26017 16.828 6.07551 17.0751 5.94198C17.3223 5.80846 17.595 5.70903 17.8933 5.64369C18.1945 5.57551 18.497 5.52153 18.801 5.48176C19.1987 5.43062 19.5212 5.39227 19.7683 5.3667C20.0183 5.33829 20.2001 5.29142 20.3138 5.22607C20.4303 5.16073 20.4885 5.0471 20.4885 4.88517V4.85107C20.4885 4.43062 20.3734 4.10392 20.1433 3.87096C19.9161 3.63801 19.5709 3.52153 19.1078 3.52153C18.6277 3.52153 18.2513 3.62664 17.9786 3.83687C17.7058 4.0471 17.5141 4.27153 17.4033 4.51017L16.4487 4.16926C16.6192 3.77153 16.8465 3.46187 17.1305 3.24028C17.4175 3.01585 17.73 2.8596 18.068 2.77153C18.409 2.68062 18.7442 2.63517 19.0737 2.63517C19.284 2.63517 19.5254 2.66073 19.7982 2.71187C20.0737 2.76016 20.3393 2.86102 20.595 3.01443C20.8536 3.16784 21.068 3.39937 21.2385 3.70903C21.409 4.01869 21.4942 4.43346 21.4942 4.95335V9.26585H20.4885V8.37948H20.4374C20.3692 8.52153 20.2555 8.67352 20.0965 8.83545C19.9374 8.99738 19.7257 9.13517 19.4615 9.2488C19.1973 9.36244 18.8749 9.41926 18.4942 9.41926ZM18.6476 8.51585C19.0453 8.51585 19.3805 8.43772 19.6533 8.28147C19.9288 8.12522 20.1362 7.92352 20.2754 7.67636C20.4175 7.4292 20.4885 7.16926 20.4885 6.89653V5.97607C20.4459 6.02721 20.3521 6.07409 20.2072 6.1167C20.0652 6.15647 19.9004 6.19198 19.7129 6.22323C19.5283 6.25164 19.3479 6.27721 19.1717 6.29994C18.9984 6.31982 18.8578 6.33687 18.7499 6.35107C18.4885 6.38517 18.2442 6.44056 18.0169 6.51727C17.7925 6.59113 17.6107 6.70335 17.4715 6.85392C17.3351 7.00164 17.2669 7.20335 17.2669 7.45903C17.2669 7.80846 17.3962 8.07267 17.6547 8.25164C17.9161 8.42778 18.247 8.51585 18.6476 8.51585Z" stroke="#1F7ED8"/>
<path d="M24.3354 0.538574V9.26585H23.3298V0.538574H24.3354Z" stroke="#1F7ED8"/>
<path d="M29.024 2.72039V3.57267H25.632V2.72039H29.024ZM26.6206 1.15221H27.6263V7.39085C27.6263 7.67494 27.6675 7.88801 27.7499 8.03005C27.8351 8.16926 27.943 8.26301 28.0737 8.3113C28.2072 8.35676 28.3479 8.37948 28.4956 8.37948C28.6064 8.37948 28.6973 8.3738 28.7683 8.36244C28.8394 8.34823 28.8962 8.33687 28.9388 8.32835L29.1433 9.23176C29.0751 9.25732 28.98 9.28289 28.8578 9.30846C28.7357 9.33687 28.5808 9.35107 28.3933 9.35107C28.1092 9.35107 27.8308 9.29 27.5581 9.16784C27.2882 9.04568 27.0638 8.8596 26.8848 8.6096C26.7087 8.3596 26.6206 8.04426 26.6206 7.66357V1.15221Z" stroke="#1F7ED8"/>
<path d="M31.6831 5.32835V9.26585H30.6774V0.538574H31.6831V3.74312H31.7683C31.9217 3.40505 32.1518 3.13659 32.4587 2.93772C32.7683 2.73602 33.1803 2.63517 33.6945 2.63517C34.1405 2.63517 34.5311 2.72465 34.8663 2.90363C35.2016 3.07977 35.4615 3.35107 35.6462 3.71755C35.8337 4.08119 35.9274 4.54426 35.9274 5.10676V9.26585H34.9217V5.17494C34.9217 4.65505 34.7868 4.25306 34.5169 3.96897C34.2499 3.68204 33.8791 3.53857 33.4047 3.53857C33.0751 3.53857 32.7797 3.60818 32.5183 3.74738C32.2598 3.88659 32.0553 4.08971 31.9047 4.35676C31.757 4.6238 31.6831 4.94767 31.6831 5.32835Z" stroke="#1F7ED8"/>
<path d="M0.837219 24.2658V15.5386H3.88836C4.49631 15.5386 4.99773 15.6437 5.39262 15.8539C5.7875 16.0613 6.08154 16.3411 6.27472 16.6934C6.4679 17.0428 6.56449 17.4306 6.56449 17.8568C6.56449 18.2318 6.49773 18.5414 6.36421 18.7857C6.23353 19.0301 6.06023 19.2232 5.84432 19.3653C5.63125 19.5073 5.39972 19.6124 5.14972 19.6806V19.7658C5.41676 19.7829 5.68523 19.8766 5.95512 20.0471C6.225 20.2176 6.45086 20.4619 6.63267 20.7801C6.81449 21.0982 6.9054 21.4874 6.9054 21.9477C6.9054 22.3852 6.80597 22.7786 6.60711 23.1281C6.40824 23.4775 6.09432 23.7545 5.66534 23.959C5.23637 24.1636 4.67813 24.2658 3.99063 24.2658H0.837219ZM1.89404 23.3283H3.99063C4.68097 23.3283 5.17103 23.1948 5.4608 22.9278C5.75341 22.6579 5.89972 22.3312 5.89972 21.9477C5.89972 21.6522 5.82444 21.3795 5.67387 21.1295C5.5233 20.8766 5.30881 20.6749 5.0304 20.5244C4.75199 20.371 4.42245 20.2943 4.04176 20.2943H1.89404V23.3283ZM1.89404 19.3738H3.85426C4.17245 19.3738 4.45938 19.3113 4.71506 19.1863C4.97358 19.0613 5.17813 18.8852 5.3287 18.6579C5.48211 18.4306 5.55881 18.1636 5.55881 17.8568C5.55881 17.4732 5.42529 17.1479 5.15824 16.8809C4.8912 16.611 4.4679 16.4761 3.88836 16.4761H1.89404V19.3738Z" stroke="#1F7ED8"/>
<path d="M8.50554 24.2658V17.7204H9.47713V18.709H9.54532C9.66463 18.3852 9.88054 18.1224 10.193 17.9207C10.5055 17.719 10.8578 17.6181 11.2499 17.6181C11.3237 17.6181 11.4161 17.6195 11.5268 17.6224C11.6376 17.6252 11.7215 17.6295 11.7783 17.6352V18.6579C11.7442 18.6494 11.6661 18.6366 11.5439 18.6195C11.4246 18.5997 11.2982 18.5897 11.1646 18.5897C10.8465 18.5897 10.5624 18.6565 10.3124 18.79C10.0652 18.9207 9.86918 19.1025 9.72429 19.3354C9.58225 19.5656 9.51122 19.8283 9.51122 20.1238V24.2658H8.50554Z" stroke="#1F7ED8"/>
<path d="M12.9704 24.2658V17.7204H13.9761V24.2658H12.9704ZM13.4818 16.6295C13.2857 16.6295 13.1167 16.5627 12.9746 16.4292C12.8354 16.2957 12.7658 16.1352 12.7658 15.9477C12.7658 15.7602 12.8354 15.5997 12.9746 15.4661C13.1167 15.3326 13.2857 15.2658 13.4818 15.2658C13.6778 15.2658 13.8454 15.3326 13.9846 15.4661C14.1266 15.5997 14.1977 15.7602 14.1977 15.9477C14.1977 16.1352 14.1266 16.2957 13.9846 16.4292C13.8454 16.5627 13.6778 16.6295 13.4818 16.6295Z" stroke="#1F7ED8"/>
<path d="M18.2896 24.4022C17.7442 24.4022 17.2626 24.2644 16.845 23.9889C16.4274 23.7105 16.1007 23.3184 15.8649 22.8127C15.6291 22.3042 15.5112 21.7033 15.5112 21.0102C15.5112 20.3227 15.6291 19.7261 15.8649 19.2204C16.1007 18.7147 16.4288 18.3241 16.8493 18.0485C17.2697 17.7729 17.7555 17.6352 18.3067 17.6352C18.7328 17.6352 19.0695 17.7062 19.3166 17.8482C19.5666 17.9874 19.757 18.1465 19.8876 18.3255C20.0212 18.5016 20.1249 18.6465 20.1987 18.7602H20.284V15.5386H21.2896V24.2658H20.318V23.2602H20.1987C20.1249 23.3795 20.0197 23.5301 19.8834 23.7119C19.747 23.8908 19.5524 24.0514 19.2996 24.1934C19.0467 24.3326 18.7101 24.4022 18.2896 24.4022ZM18.426 23.4988C18.8294 23.4988 19.1703 23.3937 19.4487 23.1835C19.7271 22.9704 19.9388 22.6764 20.0837 22.3014C20.2286 21.9235 20.301 21.4874 20.301 20.9931C20.301 20.5045 20.23 20.0769 20.0879 19.7104C19.9459 19.3411 19.7357 19.0542 19.4572 18.8497C19.1788 18.6423 18.8351 18.5386 18.426 18.5386C17.9999 18.5386 17.6447 18.6479 17.3607 18.8667C17.0794 19.0826 16.8678 19.3766 16.7257 19.7488C16.5865 20.1181 16.5169 20.5329 16.5169 20.9931C16.5169 21.459 16.5879 21.8823 16.73 22.263C16.8749 22.6408 17.0879 22.942 17.3692 23.1664C17.6533 23.388 18.0055 23.4988 18.426 23.4988Z" stroke="#1F7ED8"/>
<path d="M25.9132 26.8568C25.4274 26.8568 25.0098 26.7943 24.6604 26.6693C24.3109 26.5471 24.0197 26.3852 23.7868 26.1835C23.5567 25.9846 23.3734 25.7715 23.2371 25.5443L24.0382 24.9818C24.1291 25.1011 24.2442 25.2374 24.3834 25.3908C24.5226 25.5471 24.7129 25.682 24.9544 25.7957C25.1987 25.9122 25.5183 25.9704 25.9132 25.9704C26.4416 25.9704 26.8777 25.8426 27.2215 25.5869C27.5652 25.3312 27.7371 24.9306 27.7371 24.3852V23.0556H27.6518C27.578 23.1749 27.4729 23.3227 27.3365 23.4988C27.203 23.6721 27.0098 23.8269 26.757 23.9633C26.507 24.0968 26.1689 24.1636 25.7428 24.1636C25.2144 24.1636 24.7399 24.0386 24.3195 23.7886C23.9019 23.5386 23.5709 23.1749 23.3266 22.6977C23.0851 22.2204 22.9643 21.6408 22.9643 20.959C22.9643 20.2886 23.0822 19.7048 23.318 19.2076C23.5538 18.7076 23.882 18.3212 24.3024 18.0485C24.7229 17.7729 25.2087 17.6352 25.7598 17.6352C26.1859 17.6352 26.524 17.7062 26.774 17.8482C27.0269 17.9874 27.22 18.1465 27.3536 18.3255C27.4899 18.5016 27.595 18.6465 27.6689 18.7602H27.7712V17.7204H28.7428V24.4533C28.7428 25.0158 28.6149 25.4732 28.3592 25.8255C28.1064 26.1806 27.7655 26.4406 27.3365 26.6053C26.9104 26.7729 26.4359 26.8568 25.9132 26.8568ZM25.8791 23.2602C26.2825 23.2602 26.6234 23.1678 26.9018 22.9832C27.1803 22.7985 27.3919 22.5329 27.5368 22.1863C27.6817 21.8397 27.7541 21.4249 27.7541 20.942C27.7541 20.4704 27.6831 20.0542 27.5411 19.6934C27.399 19.3326 27.1888 19.0499 26.9104 18.8454C26.632 18.6408 26.2882 18.5386 25.8791 18.5386C25.453 18.5386 25.0979 18.6465 24.8138 18.8624C24.5325 19.0783 24.3209 19.3681 24.1788 19.7318C24.0396 20.0954 23.97 20.4988 23.97 20.942C23.97 21.3965 24.0411 21.7985 24.1831 22.1479C24.328 22.4945 24.5411 22.7673 24.8223 22.9661C25.1064 23.1622 25.4587 23.2602 25.8791 23.2602Z" stroke="#1F7ED8"/>
<path d="M33.328 24.4022C32.6973 24.4022 32.1533 24.263 31.6959 23.9846C31.2413 23.7033 30.8905 23.3113 30.6433 22.8085C30.399 22.3028 30.2768 21.7147 30.2768 21.0443C30.2768 20.3738 30.399 19.7829 30.6433 19.2715C30.8905 18.7573 31.2342 18.3568 31.6746 18.0698C32.1178 17.7801 32.6348 17.6352 33.2257 17.6352C33.5666 17.6352 33.9033 17.692 34.2357 17.8056C34.568 17.9193 34.8706 18.1039 35.1433 18.3596C35.4161 18.6124 35.6334 18.9477 35.7953 19.3653C35.9572 19.7829 36.0382 20.2971 36.0382 20.9079V21.334H30.9928V20.4647H35.0155C35.0155 20.0954 34.9416 19.7658 34.7939 19.4761C34.649 19.1863 34.4416 18.9576 34.1717 18.79C33.9047 18.6224 33.5893 18.5386 33.2257 18.5386C32.8251 18.5386 32.4786 18.638 32.1859 18.8369C31.8962 19.0329 31.6732 19.2886 31.5169 19.6039C31.3607 19.9193 31.2825 20.2573 31.2825 20.6181V21.1977C31.2825 21.692 31.3678 22.111 31.5382 22.4548C31.7115 22.7957 31.9516 23.0556 32.2584 23.2346C32.5652 23.4107 32.9217 23.4988 33.328 23.4988C33.5922 23.4988 33.8308 23.4619 34.0439 23.388C34.2598 23.3113 34.4459 23.1977 34.6021 23.0471C34.7584 22.8937 34.8791 22.7033 34.9644 22.4761L35.9359 22.7488C35.8337 23.0783 35.6618 23.3681 35.4203 23.6181C35.1788 23.8653 34.8805 24.0585 34.5254 24.1977C34.1703 24.334 33.7712 24.4022 33.328 24.4022Z" stroke="#1F7ED8"/>
</svg>
